<?xml version="1.0" standalone="no"?>
<!DOCTYPE svg PUBLIC "-//W3C//DTD SVG 20010904//EN"
 "http://www.w3.org/TR/2001/REC-SVG-20010904/DTD/svg10.dtd">
<svg version="1.0" xmlns="http://www.w3.org/2000/svg"
 width="512.000000pt" height="512.000000pt" viewBox="0 0 512.000000 512.000000"
 preserveAspectRatio="xMidYMid meet">

<g transform="translate(0.000000,512.000000) scale(0.100000,-0.100000)"
fill="currentColor" stroke="none">
<path d="M1375 4786 c-94 -41 -124 -168 -58 -247 53 -63 -36 -59 1468 -59
l1375 0 2 -1709 c3 -1709 3 -1710 24 -1737 39 -53 71 -69 134 -69 63 0 95 16
134 69 l21 27 0 1819 0 1819 -21 27 c-11 15 -33 37 -48 48 -27 21 -30 21
-1514 23 -1221 2 -1492 0 -1517 -11z"/>
<path d="M735 4146 c-41 -18 -83 -69 -90 -109 -3 -18 -4 -838 -3 -1824 l3
-1792 21 -27 c11 -15 33 -37 48 -48 27 -21 28 -21 1526 -21 1498 0 1499 0
1526 21 15 11 37 33 48 48 l21 27 0 1819 0 1819 -21 27 c-11 15 -33 37 -48 48
-27 21 -30 21 -1514 23 -1221 2 -1492 0 -1517 -11z m2785 -1906 l0 -1600
-1280 0 -1280 0 0 1600 0 1600 1280 0 1280 0 0 -1600z"/>
</g>
</svg>
