<?xml version="1.0" standalone="no"?>
<!DOCTYPE svg PUBLIC "-//W3C//DTD SVG 20010904//EN"
 "http://www.w3.org/TR/2001/REC-SVG-20010904/DTD/svg10.dtd">
<svg version="1.0" xmlns="http://www.w3.org/2000/svg"
 width="50" height="50" viewBox="0 0 4096.000000 3090.000000"
 preserveAspectRatio="xMidYMid meet">

<g transform="translate(0.000000,3090.000000) scale(0.100000,-0.100000)"
fill="currentColor" stroke="none">
<path d="M9250 30894 c-780 -44 -1342 -154 -1890 -371 -495 -196 -909 -461
-1245 -798 -497 -496 -780 -1083 -887 -1840 -20 -141 -22 -204 -27 -1015 l-6
-865 -715 -6 c-804 -6 -802 -6 -1137 -89 -867 -216 -1732 -802 -2379 -1611
-564 -705 -897 -1498 -954 -2269 -8 -102 -10 -2471 -8 -8020 4 -7390 5 -7880
21 -7957 70 -339 244 -642 482 -842 186 -157 363 -248 601 -308 l109 -28 2015
0 c1910 0 2020 1 2105 18 451 92 816 368 1017 772 81 161 128 324 148 517 6
60 10 3385 10 9286 l0 9193 1683 -4 c1680 -3 1682 -3 1817 -25 244 -40 495
-109 698 -194 837 -347 1484 -1054 1767 -1929 60 -185 100 -368 137 -629 9
-66 13 -1855 18 -7925 l5 -7840 23 -97 c67 -291 200 -536 397 -733 169 -169
336 -273 550 -344 230 -76 80 -71 2274 -71 2135 0 2036 -2 2236 55 120 35 310
128 418 205 335 241 554 623 596 1044 13 127 13 10183 1 14386 -8 2756 -5
2606 -59 3014 -189 1419 -845 2767 -1912 3931 -812 885 -1839 1645 -3019 2234
-1289 643 -2657 1033 -3980 1136 -186 14 -773 27 -910 19z m880 -1354 c868
-59 1582 -199 2354 -460 1957 -661 3638 -2049 4597 -3796 386 -704 619 -1399
715 -2134 26 -199 34 -2942 31 -10250 l-2 -6425 -33 -67 c-37 -77 -90 -128
-172 -167 l-55 -26 -1680 0 -1680 0 -55 26 c-82 39 -135 90 -172 167 l-33 67
-6 7690 c-5 7106 -6 7700 -22 7825 -63 513 -164 906 -339 1318 -594 1405
-1854 2405 -3328 2642 -309 49 -314 50 -2082 50 l-1658 0 0 768 c0 615 3 792
15 894 19 167 48 295 97 437 306 888 1171 1374 2583 1451 186 10 715 4 925
-10z m-4930 -13943 c0 -8078 -2 -9069 -15 -9122 -19 -75 -77 -159 -140 -202
-97 -67 22 -64 -1810 -61 l-1660 3 -57 27 c-73 34 -142 103 -176 176 l-27 57
0 7755 c0 7471 1 7759 18 7864 143 845 848 1774 1725 2270 261 148 597 263
842 289 19 2 320 5 668 5 l632 2 0 -9063z"/>
<path d="M23039 26019 c-31 -4 -94 -17 -139 -29 -540 -138 -941 -572 -1057
-1145 -17 -86 -18 -350 -20 -6330 -3 -7255 7 -10663 31 -10905 120 -1182 497
-2221 1171 -3230 1285 -1924 3583 -3451 6155 -4090 566 -140 1114 -228 1695
-271 221 -17 854 -17 1060 -1 1010 80 1798 329 2450 773 240 163 512 413 683
627 312 391 531 871 627 1377 57 300 58 324 64 1245 l6 855 715 6 c739 5 746
6 970 50 1422 279 2827 1569 3325 3054 76 229 134 486 167 745 11 86 13 1512
13 8060 l0 7955 -23 105 c-32 145 -64 236 -126 365 -193 395 -530 661 -981
772 -65 16 -219 17 -2060 21 -1493 2 -2012 0 -2080 -9 -198 -26 -419 -110
-592 -225 -105 -70 -264 -221 -343 -326 -162 -214 -260 -465 -289 -740 -8 -67
-11 -2936 -11 -9293 l0 -9196 -1682 4 c-1681 3 -1683 3 -1818 25 -446 73 -844
226 -1204 462 -600 395 -1045 984 -1266 1675 -55 175 -96 362 -132 615 -9 66
-13 1853 -18 7925 l-5 7840 -23 97 c-91 394 -309 715 -627 923 -112 74 -189
111 -324 155 -226 75 -77 70 -2280 69 -1087 -1 -2001 -5 -2032 -10z m3787
-1366 c76 -39 145 -115 176 -191 l23 -57 5 -7715 5 -7715 22 -160 c79 -563
207 -990 438 -1460 150 -305 314 -562 531 -835 140 -175 489 -524 664 -664
647 -515 1330 -808 2165 -928 148 -22 168 -22 1873 -25 l1723 -4 -4 -837 c-4
-929 -2 -902 -76 -1163 -226 -799 -909 -1309 -1986 -1483 -640 -103 -1474 -96
-2290 19 -1734 245 -3311 978 -4587 2133 -1226 1111 -2077 2568 -2307 3952
-57 339 -52 -227 -62 7270 -5 3792 -8 7509 -6 8260 2 1265 3 1368 19 1408 41
102 138 191 235 218 39 10 379 12 1713 11 l1665 -2 61 -32z m12616 9 c74 -37
134 -96 170 -170 l33 -67 3 -7710 c2 -5364 0 -7739 -8 -7805 -93 -841 -772
-1794 -1655 -2325 -231 -140 -447 -232 -680 -290 -205 -52 -255 -55 -928 -55
l-617 0 2 9088 c3 8648 4 9089 21 9132 38 98 137 192 232 219 17 5 759 9 1705
8 l1675 -2 47 -23z"/>
</g>
</svg>
