<?xml version="1.0" standalone="no"?>
<!DOCTYPE svg PUBLIC "-//W3C//DTD SVG 20010904//EN"
 "http://www.w3.org/TR/2001/REC-SVG-20010904/DTD/svg10.dtd">
<svg version="1.0" xmlns="http://www.w3.org/2000/svg"
 width="50" height="50" viewBox="0 0 512.000000 512.000000"
 preserveAspectRatio="xMidYMid meet">

<g transform="translate(0.000000,512.000000) scale(0.100000,-0.100000)"
fill="currentColor" stroke="none">
<path d="M1137 4825 c-192 -53 -346 -225 -428 -478 -17 -54 -29 -100 -26 -103
3 -3 257 -39 564 -80 307 -40 573 -76 592 -79 l34 -6 -6 118 c-17 344 -172
565 -440 628 -76 18 -225 18 -290 0z"/>
<path d="M777 4123 c-11 -10 -8 -152 4 -202 17 -77 60 -151 126 -221 l64 -68
-98 -81 c-56 -47 -104 -79 -113 -77 -8 3 -63 8 -121 11 l-105 7 -267 -233
-267 -234 0 -357 0 -358 22 -5 c188 -44 394 -98 399 -103 3 -4 -9 -243 -26
-532 l-32 -525 -131 -426 c-73 -234 -132 -429 -132 -432 0 -4 83 -7 184 -7
l183 0 21 58 c12 31 79 226 150 432 l129 375 32 260 c18 143 37 293 43 333
l10 72 143 0 142 0 127 -347 127 -347 -75 -407 c-42 -224 -76 -412 -76 -418 0
-8 55 -11 180 -11 99 0 180 3 180 7 0 4 38 211 85 459 47 249 85 463 85 474 0
12 -38 128 -84 259 -86 243 -149 446 -144 462 2 4 217 -113 478 -261 261 -148
479 -271 484 -273 5 -2 -32 -75 -82 -162 -51 -88 -88 -162 -84 -166 27 -26
415 -240 421 -233 14 16 441 763 441 771 0 8 -391 236 -413 241 -7 1 -50 -64
-96 -145 -46 -82 -85 -150 -87 -151 -1 -2 -259 142 -572 319 l-570 323 -31
105 -31 106 53 217 c28 120 54 218 57 218 3 0 16 -87 28 -194 19 -172 26 -207
60 -296 l39 -101 151 -89 c84 -49 152 -85 152 -82 0 4 -27 102 -61 217 l-60
210 -49 434 c-28 238 -53 437 -56 442 -3 5 -51 9 -107 9 -56 0 -126 3 -154 6
l-53 7 -20 55 c-33 88 -32 92 26 111 108 36 219 132 270 233 24 47 61 184 52
193 -4 5 -898 125 -927 125 -10 0 -21 -3 -24 -7z m-330 -1589 c-2 -3 -41 5
-154 31 -22 5 -23 10 -23 113 l0 107 88 78 87 78 3 -202 c1 -111 1 -203 -1
-205z"/>
<path d="M4086 2147 c-201 -313 -319 -494 -329 -500 -8 -6 -49 6 -111 32 -54
23 -104 41 -110 41 -10 0 -796 -1417 -796 -1435 0 -3 209 -5 465 -5 l464 0
203 270 203 269 176 1 175 0 186 -267 185 -268 161 -3 160 -2 -361 904 -362
905 -80 21 c-44 12 -110 30 -148 40 l-67 19 -14 -22z"/>
<path d="M3956 509 c-92 -121 -166 -223 -163 -225 2 -2 204 -3 449 -2 l445 3
-154 223 -154 222 -128 0 -128 0 -167 -221z"/>
</g>
</svg>
